<svg viewBox="96 171 276 193" xmlns="http://www.w3.org/2000/svg">
  <path d="M365.237 356.716c-6.481 5.983-65.508-87.449-57.793-94.57-1.051-1.727 1.08 9.178-.906 9.406-2.011.203-7.826-10.359-8.514-8.463 4.072 4.072-8.548 61.346-16.26 53.634L218.41 173.258c-.862-1.857-1.083 7.523-3.125 7.523 0 0-1.656-.82-1.662-.82-2.052 0-.223-9.355-1.07-7.484l-48.334 99.08-3.145-28.291c-.267-2.388-4.17 15.409-6.545 15.078-2.34-.344-2.629-12.955-3.542-10.726 6.835.427-36.788 110.502-47.285 109.846-.662 1.619 7.731-2.376 8.706-.921.975 1.452-5.592 7.969-3.842 7.969 2.796-11.874 255.835-9.585 252.188 0 1.899 0-4.55-5.85-3.622-7.507.929-1.657 9.097 1.332 8.106-.29zm-248.848-2.712l36.516-89.159 6.667-12.947c.262 2.35-1.629 44.047.706 44.422 2.34.356 4.628-.855 5.608-3.005-7.122-5.341 41.825-109.655 47.808-105.168 11.714-5.512 70.045 133.652 63.483 136.74.898 1.929 2.735 3.134 4.993 3.039a5.246 5.246 0 004.71-3.453l17.285-47.634 47.219 77.166H116.389z" style="stroke-width:58.4706px;stroke-opacity:0;fill:white"/>
</svg>
